<svg xmlns="http://www.w3.org/2000/svg" height="406pt" version="1.1" viewBox="-118 1 406 406.73003" width="406pt">
<g id="surface1">
<path d="M 95.394531 169.621094 C 136.597656 169.621094 170 136.21875 170 95.015625 C 170 53.8125 136.597656 20.410156 95.394531 20.410156 C 54.191406 20.410156 20.789062 53.8125 20.789062 95.015625 C 20.789062 136.21875 54.191406 169.621094 95.394531 169.621094 Z M 75.046875 54.320312 C 86.285156 54.320312 95.394531 63.429688 95.394531 74.667969 C 95.394531 85.902344 86.285156 95.015625 75.046875 95.015625 C 63.8125 95.015625 54.703125 85.902344 54.703125 74.667969 C 54.703125 63.429688 63.8125 54.320312 75.046875 54.320312 Z M 75.046875 54.320312 " style=" stroke:none;fill-rule:nonzero;fill:rgb(74.117647%,73.72549%,75.686275%);fill-opacity:1;" />
<path d="M 81.832031 156.054688 C 123.035156 156.054688 156.4375 122.652344 156.4375 81.449219 C 156.4375 40.246094 123.035156 6.84375 81.832031 6.84375 C 40.628906 6.84375 7.226562 40.246094 7.226562 81.449219 C 7.226562 122.652344 40.628906 156.054688 81.832031 156.054688 Z M 61.484375 40.757812 C 72.722656 40.757812 81.832031 49.867188 81.832031 61.101562 C 81.832031 72.339844 72.71875 81.449219 61.484375 81.449219 C 50.246094 81.449219 41.136719 72.339844 41.136719 61.101562 C 41.136719 49.867188 50.246094 40.757812 61.484375 40.757812 Z M 61.484375 40.757812 " style=" stroke:none;fill-rule:nonzero;fill:rgb(87.843137%,20%,32.156863%);fill-opacity:1;" />
<path d="M 81.832031 61.105469 C 81.832031 72.339844 72.722656 81.449219 61.484375 81.449219 C 50.246094 81.449219 41.136719 72.339844 41.136719 61.105469 C 41.136719 49.867188 50.246094 40.757812 61.484375 40.757812 C 72.722656 40.757812 81.832031 49.867188 81.832031 61.105469 Z M 81.832031 61.105469 " style=" stroke:none;fill-rule:nonzero;fill:rgb(20%,54.117647%,95.294118%);fill-opacity:1;" />
<path d="M 163.21875 81.449219 C 163.253906 36.5 126.84375 0.0351562 81.894531 0 C 36.945312 -0.0351562 0.480469 36.375 0.445312 81.324219 C 0.410156 123.667969 32.851562 158.964844 75.050781 162.492188 L 75.050781 407 L 88.613281 407 L 88.613281 162.492188 C 130.746094 158.9375 163.15625 123.734375 163.21875 81.449219 Z M 81.832031 149.273438 C 44.375 149.273438 14.007812 118.90625 14.007812 81.449219 C 14.007812 43.992188 44.375 13.628906 81.832031 13.628906 C 119.289062 13.628906 149.65625 43.992188 149.65625 81.449219 C 149.613281 118.890625 119.269531 149.230469 81.832031 149.273438 Z M 81.832031 149.273438 " style=" stroke:none;fill-rule:nonzero;fill:rgb(13.72549%,12.156863%,12.54902%);fill-opacity:1;" />
<path d="M 61.484375 33.976562 C 46.5 33.976562 34.355469 46.121094 34.355469 61.105469 C 34.355469 76.085938 46.5 88.234375 61.484375 88.234375 C 76.464844 88.234375 88.613281 76.085938 88.613281 61.105469 C 88.613281 46.121094 76.46875 33.976562 61.484375 33.976562 Z M 61.484375 74.667969 C 53.992188 74.667969 47.917969 68.59375 47.917969 61.101562 C 47.917969 53.609375 53.992188 47.539062 61.484375 47.539062 C 68.976562 47.539062 75.046875 53.609375 75.046875 61.101562 C 75.046875 68.59375 68.976562 74.667969 61.484375 74.667969 Z M 61.484375 74.667969 " style=" stroke:none;fill-rule:nonzero;fill:rgb(13.72549%,12.156863%,12.54902%);fill-opacity:1;" />
</g>
</svg>